<?xml version="1.0" encoding="UTF-8" standalone="no"?>
<!DOCTYPE svg PUBLIC "-//W3C//DTD SVG 1.1//EN"
 "http://www.w3.org/Graphics/SVG/1.1/DTD/svg11.dtd">
<!-- Generated by graphviz version 3.0.0 (20220226.1711)
 -->
<!-- Title: dependencies Pages: 1 -->
<svg width="6545pt" height="247pt"
 viewBox="0.00 0.00 6545.00 246.80" xmlns="http://www.w3.org/2000/svg" xmlns:xlink="http://www.w3.org/1999/xlink">
<g id="graph0" class="graph" transform="scale(1 1) rotate(0) translate(4 242.8)">
<title>dependencies</title>
<polygon fill="white" stroke="transparent" points="-4,4 -4,-242.8 6541,-242.8 6541,4 -4,4"/>
<text text-anchor="middle" x="3268.5" y="-8.2" font-family="sans-serif" font-size="14.00">dependencies</text>
<g id="clust1" class="cluster">
<title>cluster_AppModule</title>
<polygon fill="none" stroke="black" stroke-dasharray="1,5" points="8,-32.8 8,-230.8 6529,-230.8 6529,-32.8 8,-32.8"/>
</g>
<g id="clust20" class="cluster">
<title>cluster_AppModule_imports</title>
<polygon fill="none" stroke="black" points="3912,-40.8 3912,-92.8 6521,-92.8 6521,-40.8 3912,-40.8"/>
</g>
<g id="clust22" class="cluster">
<title>cluster_AppModule_bootstrap</title>
<polygon fill="none" stroke="black" points="3578,-170.8 3578,-222.8 3702,-222.8 3702,-170.8 3578,-170.8"/>
</g>
<g id="clust23" class="cluster">
<title>cluster_AppModule_providers</title>
<polygon fill="none" stroke="black" points="3376,-40.8 3376,-92.8 3904,-92.8 3904,-40.8 3376,-40.8"/>
</g>
<g id="clust2" class="cluster">
<title>cluster_AppModule_declarations</title>
<polygon fill="none" stroke="black" points="16,-40.8 16,-92.8 3368,-92.8 3368,-40.8 16,-40.8"/>
</g>
<!-- AppComponent -->
<g id="node1" class="node">
<title>AppComponent</title>
<polygon fill="#ffffb3" stroke="black" points="3359.94,-84.8 3254.06,-84.8 3254.06,-48.8 3359.94,-48.8 3359.94,-84.8"/>
<text text-anchor="middle" x="3307" y="-62.6" font-family="Times,serif" font-size="14.00">AppComponent</text>
</g>
<!-- AppModule -->
<g id="node18" class="node">
<title>AppModule</title>
<polygon fill="#8dd3c7" stroke="black" points="3681.66,-149.8 3678.66,-153.8 3657.66,-153.8 3654.66,-149.8 3598.34,-149.8 3598.34,-113.8 3681.66,-113.8 3681.66,-149.8"/>
<text text-anchor="middle" x="3640" y="-127.6" font-family="Times,serif" font-size="14.00">AppModule</text>
</g>
<!-- AppComponent&#45;&gt;AppModule -->
<g id="edge1" class="edge">
<title>AppComponent&#45;&gt;AppModule</title>
<path fill="none" stroke="black" d="M3307,-85.05C3307,-98.98 3307,-115.8 3307,-115.8 3307,-115.8 3588.16,-115.8 3588.16,-115.8"/>
<polygon fill="black" stroke="black" points="3588.16,-119.3 3598.16,-115.8 3588.16,-112.3 3588.16,-119.3"/>
</g>
<!-- HomeComponent -->
<g id="node2" class="node">
<title>HomeComponent</title>
<polygon fill="#ffffb3" stroke="black" points="3236.55,-84.8 3121.45,-84.8 3121.45,-48.8 3236.55,-48.8 3236.55,-84.8"/>
<text text-anchor="middle" x="3179" y="-62.6" font-family="Times,serif" font-size="14.00">HomeComponent</text>
</g>
<!-- HomeComponent&#45;&gt;AppModule -->
<g id="edge2" class="edge">
<title>HomeComponent&#45;&gt;AppModule</title>
<path fill="none" stroke="black" d="M3179,-84.92C3179,-99.58 3179,-117.8 3179,-117.8 3179,-117.8 3588.28,-117.8 3588.28,-117.8"/>
<polygon fill="black" stroke="black" points="3588.28,-121.3 3598.28,-117.8 3588.28,-114.3 3588.28,-121.3"/>
</g>
<!-- NavbarMovilComponent -->
<g id="node3" class="node">
<title>NavbarMovilComponent</title>
<polygon fill="#ffffb3" stroke="black" points="3103.26,-84.8 2946.74,-84.8 2946.74,-48.8 3103.26,-48.8 3103.26,-84.8"/>
<text text-anchor="middle" x="3025" y="-62.6" font-family="Times,serif" font-size="14.00">NavbarMovilComponent</text>
</g>
<!-- NavbarMovilComponent&#45;&gt;AppModule -->
<g id="edge3" class="edge">
<title>NavbarMovilComponent&#45;&gt;AppModule</title>
<path fill="none" stroke="black" d="M3025,-85.04C3025,-100.37 3025,-119.8 3025,-119.8 3025,-119.8 3588.21,-119.8 3588.21,-119.8"/>
<polygon fill="black" stroke="black" points="3588.21,-123.3 3598.21,-119.8 3588.21,-116.3 3588.21,-123.3"/>
</g>
<!-- NavbarComponent -->
<g id="node4" class="node">
<title>NavbarComponent</title>
<polygon fill="#ffffb3" stroke="black" points="2928.03,-84.8 2805.97,-84.8 2805.97,-48.8 2928.03,-48.8 2928.03,-84.8"/>
<text text-anchor="middle" x="2867" y="-62.6" font-family="Times,serif" font-size="14.00">NavbarComponent</text>
</g>
<!-- NavbarComponent&#45;&gt;AppModule -->
<g id="edge4" class="edge">
<title>NavbarComponent&#45;&gt;AppModule</title>
<path fill="none" stroke="black" d="M2867,-84.81C2867,-100.85 2867,-121.8 2867,-121.8 2867,-121.8 3588.17,-121.8 3588.17,-121.8"/>
<polygon fill="black" stroke="black" points="3588.17,-125.3 3598.17,-121.8 3588.17,-118.3 3588.17,-125.3"/>
</g>
<!-- FooterComponent -->
<g id="node5" class="node">
<title>FooterComponent</title>
<polygon fill="#ffffb3" stroke="black" points="2787.88,-84.8 2670.12,-84.8 2670.12,-48.8 2787.88,-48.8 2787.88,-84.8"/>
<text text-anchor="middle" x="2729" y="-62.6" font-family="Times,serif" font-size="14.00">FooterComponent</text>
</g>
<!-- FooterComponent&#45;&gt;AppModule -->
<g id="edge5" class="edge">
<title>FooterComponent&#45;&gt;AppModule</title>
<path fill="none" stroke="black" d="M2729,-84.84C2729,-101.53 2729,-123.8 2729,-123.8 2729,-123.8 3588.19,-123.8 3588.19,-123.8"/>
<polygon fill="black" stroke="black" points="3588.19,-127.3 3598.19,-123.8 3588.19,-120.3 3588.19,-127.3"/>
</g>
<!-- ActividadesComponent -->
<g id="node6" class="node">
<title>ActividadesComponent</title>
<polygon fill="#ffffb3" stroke="black" points="2652.2,-84.8 2503.8,-84.8 2503.8,-48.8 2652.2,-48.8 2652.2,-84.8"/>
<text text-anchor="middle" x="2578" y="-62.6" font-family="Times,serif" font-size="14.00">ActividadesComponent</text>
</g>
<!-- ActividadesComponent&#45;&gt;AppModule -->
<g id="edge6" class="edge">
<title>ActividadesComponent&#45;&gt;AppModule</title>
<path fill="none" stroke="black" d="M2578,-84.82C2578,-102.17 2578,-125.8 2578,-125.8 2578,-125.8 3588.04,-125.8 3588.04,-125.8"/>
<polygon fill="black" stroke="black" points="3588.04,-129.3 3598.04,-125.8 3588.04,-122.3 3588.04,-129.3"/>
</g>
<!-- ActividadComponent -->
<g id="node7" class="node">
<title>ActividadComponent</title>
<polygon fill="#ffffb3" stroke="black" points="2486.04,-84.8 2349.96,-84.8 2349.96,-48.8 2486.04,-48.8 2486.04,-84.8"/>
<text text-anchor="middle" x="2418" y="-62.6" font-family="Times,serif" font-size="14.00">ActividadComponent</text>
</g>
<!-- ActividadComponent&#45;&gt;AppModule -->
<g id="edge7" class="edge">
<title>ActividadComponent&#45;&gt;AppModule</title>
<path fill="none" stroke="black" d="M2418,-85.1C2418,-103.07 2418,-127.8 2418,-127.8 2418,-127.8 3588.29,-127.8 3588.29,-127.8"/>
<polygon fill="black" stroke="black" points="3588.29,-131.3 3598.29,-127.8 3588.29,-124.3 3588.29,-131.3"/>
</g>
<!-- AdministrarComponent -->
<g id="node8" class="node">
<title>AdministrarComponent</title>
<polygon fill="#ffffb3" stroke="black" points="2331.49,-84.8 2182.51,-84.8 2182.51,-48.8 2331.49,-48.8 2331.49,-84.8"/>
<text text-anchor="middle" x="2257" y="-62.6" font-family="Times,serif" font-size="14.00">AdministrarComponent</text>
</g>
<!-- AdministrarComponent&#45;&gt;AppModule -->
<g id="edge8" class="edge">
<title>AdministrarComponent&#45;&gt;AppModule</title>
<path fill="none" stroke="black" d="M2257,-85.02C2257,-103.63 2257,-129.8 2257,-129.8 2257,-129.8 3588.23,-129.8 3588.23,-129.8"/>
<polygon fill="black" stroke="black" points="3588.23,-133.3 3598.23,-129.8 3588.23,-126.3 3588.23,-133.3"/>
</g>
<!-- DialogoConfirmacionBorradoComponent -->
<g id="node9" class="node">
<title>DialogoConfirmacionBorradoComponent</title>
<polygon fill="#ffffb3" stroke="black" points="2164.07,-84.8 1913.93,-84.8 1913.93,-48.8 2164.07,-48.8 2164.07,-84.8"/>
<text text-anchor="middle" x="2039" y="-62.6" font-family="Times,serif" font-size="14.00">DialogoConfirmacionBorradoComponent</text>
</g>
<!-- DialogoConfirmacionBorradoComponent&#45;&gt;AppModule -->
<g id="edge9" class="edge">
<title>DialogoConfirmacionBorradoComponent&#45;&gt;AppModule</title>
<path fill="none" stroke="black" d="M2039,-84.91C2039,-104.14 2039,-131.8 2039,-131.8 2039,-131.8 3588,-131.8 3588,-131.8"/>
<polygon fill="black" stroke="black" points="3588,-135.3 3598,-131.8 3588,-128.3 3588,-135.3"/>
</g>
<!-- DialogoFormularioMomentoEditarComponent -->
<g id="node10" class="node">
<title>DialogoFormularioMomentoEditarComponent</title>
<polygon fill="#ffffb3" stroke="black" points="1896.08,-84.8 1617.92,-84.8 1617.92,-48.8 1896.08,-48.8 1896.08,-84.8"/>
<text text-anchor="middle" x="1757" y="-62.6" font-family="Times,serif" font-size="14.00">DialogoFormularioMomentoEditarComponent</text>
</g>
<!-- DialogoFormularioMomentoEditarComponent&#45;&gt;AppModule -->
<g id="edge10" class="edge">
<title>DialogoFormularioMomentoEditarComponent&#45;&gt;AppModule</title>
<path fill="none" stroke="black" d="M1757,-85.11C1757,-104.95 1757,-133.8 1757,-133.8 1757,-133.8 3588.03,-133.8 3588.03,-133.8"/>
<polygon fill="black" stroke="black" points="3588.03,-137.3 3598.03,-133.8 3588.03,-130.3 3588.03,-137.3"/>
</g>
<!-- DialogoFormularioMomentoAltaComponent -->
<g id="node11" class="node">
<title>DialogoFormularioMomentoAltaComponent</title>
<polygon fill="#ffffb3" stroke="black" points="1599.97,-84.8 1332.03,-84.8 1332.03,-48.8 1599.97,-48.8 1599.97,-84.8"/>
<text text-anchor="middle" x="1466" y="-62.6" font-family="Times,serif" font-size="14.00">DialogoFormularioMomentoAltaComponent</text>
</g>
<!-- DialogoFormularioMomentoAltaComponent&#45;&gt;AppModule -->
<g id="edge11" class="edge">
<title>DialogoFormularioMomentoAltaComponent&#45;&gt;AppModule</title>
<path fill="none" stroke="black" d="M1466,-84.93C1466,-105.37 1466,-135.8 1466,-135.8 1466,-135.8 3588.03,-135.8 3588.03,-135.8"/>
<polygon fill="black" stroke="black" points="3588.03,-139.3 3598.03,-135.8 3588.03,-132.3 3588.03,-139.3"/>
</g>
<!-- DialogoFormularioActividadEditarComponent -->
<g id="node12" class="node">
<title>DialogoFormularioActividadEditarComponent</title>
<polygon fill="#ffffb3" stroke="black" points="1314.34,-84.8 1035.66,-84.8 1035.66,-48.8 1314.34,-48.8 1314.34,-84.8"/>
<text text-anchor="middle" x="1175" y="-62.6" font-family="Times,serif" font-size="14.00">DialogoFormularioActividadEditarComponent</text>
</g>
<!-- DialogoFormularioActividadEditarComponent&#45;&gt;AppModule -->
<g id="edge12" class="edge">
<title>DialogoFormularioActividadEditarComponent&#45;&gt;AppModule</title>
<path fill="none" stroke="black" d="M1175,-85.08C1175,-106.12 1175,-137.8 1175,-137.8 1175,-137.8 3588.25,-137.8 3588.25,-137.8"/>
<polygon fill="black" stroke="black" points="3588.25,-141.3 3598.25,-137.8 3588.25,-134.3 3588.25,-141.3"/>
</g>
<!-- DialogoFormularioActividadAltaComponent -->
<g id="node13" class="node">
<title>DialogoFormularioActividadAltaComponent</title>
<polygon fill="#ffffb3" stroke="black" points="1017.24,-84.8 748.76,-84.8 748.76,-48.8 1017.24,-48.8 1017.24,-84.8"/>
<text text-anchor="middle" x="883" y="-62.6" font-family="Times,serif" font-size="14.00">DialogoFormularioActividadAltaComponent</text>
</g>
<!-- DialogoFormularioActividadAltaComponent&#45;&gt;AppModule -->
<g id="edge13" class="edge">
<title>DialogoFormularioActividadAltaComponent&#45;&gt;AppModule</title>
<path fill="none" stroke="black" d="M883,-84.84C883,-106.46 883,-139.8 883,-139.8 883,-139.8 3588.07,-139.8 3588.07,-139.8"/>
<polygon fill="black" stroke="black" points="3588.07,-143.3 3598.07,-139.8 3588.07,-136.3 3588.07,-143.3"/>
</g>
<!-- ToastComponent -->
<g id="node14" class="node">
<title>ToastComponent</title>
<polygon fill="#ffffb3" stroke="black" points="730.44,-84.8 617.56,-84.8 617.56,-48.8 730.44,-48.8 730.44,-84.8"/>
<text text-anchor="middle" x="674" y="-62.6" font-family="Times,serif" font-size="14.00">ToastComponent</text>
</g>
<!-- ToastComponent&#45;&gt;AppModule -->
<g id="edge14" class="edge">
<title>ToastComponent&#45;&gt;AppModule</title>
<path fill="none" stroke="black" d="M674,-84.96C674,-107.15 674,-141.8 674,-141.8 674,-141.8 3588.07,-141.8 3588.07,-141.8"/>
<polygon fill="black" stroke="black" points="3588.07,-145.3 3598.07,-141.8 3588.07,-138.3 3588.07,-145.3"/>
</g>
<!-- PrivacyPolicyComponent -->
<g id="node15" class="node">
<title>PrivacyPolicyComponent</title>
<polygon fill="#ffffb3" stroke="black" points="599.88,-84.8 440.12,-84.8 440.12,-48.8 599.88,-48.8 599.88,-84.8"/>
<text text-anchor="middle" x="520" y="-62.6" font-family="Times,serif" font-size="14.00">PrivacyPolicyComponent</text>
</g>
<!-- PrivacyPolicyComponent&#45;&gt;AppModule -->
<g id="edge15" class="edge">
<title>PrivacyPolicyComponent&#45;&gt;AppModule</title>
<path fill="none" stroke="black" d="M520,-85.05C520,-107.82 520,-143.8 520,-143.8 520,-143.8 3588.25,-143.8 3588.25,-143.8"/>
<polygon fill="black" stroke="black" points="3588.25,-147.3 3598.25,-143.8 3588.25,-140.3 3588.25,-147.3"/>
</g>
<!-- LoadingComponent -->
<g id="node16" class="node">
<title>LoadingComponent</title>
<polygon fill="#ffffb3" stroke="black" points="421.99,-84.8 294.01,-84.8 294.01,-48.8 421.99,-48.8 421.99,-84.8"/>
<text text-anchor="middle" x="358" y="-62.6" font-family="Times,serif" font-size="14.00">LoadingComponent</text>
</g>
<!-- LoadingComponent&#45;&gt;AppModule -->
<g id="edge16" class="edge">
<title>LoadingComponent&#45;&gt;AppModule</title>
<path fill="none" stroke="black" d="M358,-85.12C358,-108.46 358,-145.8 358,-145.8 358,-145.8 3588.2,-145.8 3588.2,-145.8"/>
<polygon fill="black" stroke="black" points="3588.2,-149.3 3598.2,-145.8 3588.2,-142.3 3588.2,-149.3"/>
</g>
<!-- DialogoFormularioInscripcionComponent -->
<g id="node17" class="node">
<title>DialogoFormularioInscripcionComponent</title>
<polygon fill="#ffffb3" stroke="black" points="276.41,-84.8 23.59,-84.8 23.59,-48.8 276.41,-48.8 276.41,-84.8"/>
<text text-anchor="middle" x="150" y="-62.6" font-family="Times,serif" font-size="14.00">DialogoFormularioInscripcionComponent</text>
</g>
<!-- DialogoFormularioInscripcionComponent&#45;&gt;AppModule -->
<g id="edge17" class="edge">
<title>DialogoFormularioInscripcionComponent&#45;&gt;AppModule</title>
<path fill="none" stroke="black" d="M150,-85.18C150,-109.08 150,-147.8 150,-147.8 150,-147.8 3588.07,-147.8 3588.07,-147.8"/>
<polygon fill="black" stroke="black" points="3588.07,-151.3 3598.07,-147.8 3588.07,-144.3 3588.07,-151.3"/>
</g>
<!-- AppComponent  -->
<g id="node36" class="node">
<title>AppComponent </title>
<polygon fill="#80b1d3" stroke="black" points="3694.44,-214.8 3585.56,-214.8 3585.56,-178.8 3694.44,-178.8 3694.44,-214.8"/>
<text text-anchor="middle" x="3640" y="-192.6" font-family="Times,serif" font-size="14.00">AppComponent </text>
</g>
<!-- AppModule&#45;&gt;AppComponent  -->
<g id="edge35" class="edge">
<title>AppModule&#45;&gt;AppComponent </title>
<path fill="none" stroke="black" stroke-dasharray="1,5" d="M3640,-149.91C3640,-149.91 3640,-168.79 3640,-168.79"/>
<polygon fill="black" stroke="black" points="3636.5,-168.79 3640,-178.79 3643.5,-168.79 3636.5,-168.79"/>
</g>
<!-- BrowserModule -->
<g id="node19" class="node">
<title>BrowserModule</title>
<polygon fill="#8dd3c7" stroke="black" points="6513.49,-84.8 6510.49,-88.8 6489.49,-88.8 6486.49,-84.8 6406.51,-84.8 6406.51,-48.8 6513.49,-48.8 6513.49,-84.8"/>
<text text-anchor="middle" x="6460" y="-62.6" font-family="Times,serif" font-size="14.00">BrowserModule</text>
</g>
<!-- BrowserModule&#45;&gt;AppModule -->
<g id="edge18" class="edge">
<title>BrowserModule&#45;&gt;AppModule</title>
<path fill="none" stroke="black" d="M6460,-85.18C6460,-109.08 6460,-147.8 6460,-147.8 6460,-147.8 3691.78,-147.8 3691.78,-147.8"/>
<polygon fill="black" stroke="black" points="3691.78,-144.3 3681.78,-147.8 3691.78,-151.3 3691.78,-144.3"/>
</g>
<!-- AppRoutingModule -->
<g id="node20" class="node">
<title>AppRoutingModule</title>
<polygon fill="#8dd3c7" stroke="black" points="6388.28,-84.8 6385.28,-88.8 6364.28,-88.8 6361.28,-84.8 6259.72,-84.8 6259.72,-48.8 6388.28,-48.8 6388.28,-84.8"/>
<text text-anchor="middle" x="6324" y="-62.6" font-family="Times,serif" font-size="14.00">AppRoutingModule</text>
</g>
<!-- AppRoutingModule&#45;&gt;AppModule -->
<g id="edge19" class="edge">
<title>AppRoutingModule&#45;&gt;AppModule</title>
<path fill="none" stroke="black" d="M6324,-85.12C6324,-108.46 6324,-145.8 6324,-145.8 6324,-145.8 3691.89,-145.8 3691.89,-145.8"/>
<polygon fill="black" stroke="black" points="3691.89,-142.3 3681.89,-145.8 3691.89,-149.3 3691.89,-142.3"/>
</g>
<!-- ReactiveFormsModule -->
<g id="node21" class="node">
<title>ReactiveFormsModule</title>
<polygon fill="#8dd3c7" stroke="black" points="6241.31,-84.8 6238.31,-88.8 6217.31,-88.8 6214.31,-84.8 6096.69,-84.8 6096.69,-48.8 6241.31,-48.8 6241.31,-84.8"/>
<text text-anchor="middle" x="6169" y="-62.6" font-family="Times,serif" font-size="14.00">ReactiveFormsModule</text>
</g>
<!-- ReactiveFormsModule&#45;&gt;AppModule -->
<g id="edge20" class="edge">
<title>ReactiveFormsModule&#45;&gt;AppModule</title>
<path fill="none" stroke="black" d="M6169,-85.05C6169,-107.82 6169,-143.8 6169,-143.8 6169,-143.8 3691.79,-143.8 3691.79,-143.8"/>
<polygon fill="black" stroke="black" points="3691.79,-140.3 3681.79,-143.8 3691.79,-147.3 3691.79,-140.3"/>
</g>
<!-- HttpClientModule -->
<g id="node22" class="node">
<title>HttpClientModule</title>
<polygon fill="#8dd3c7" stroke="black" points="6079.16,-84.8 6076.16,-88.8 6055.16,-88.8 6052.16,-84.8 5960.84,-84.8 5960.84,-48.8 6079.16,-48.8 6079.16,-84.8"/>
<text text-anchor="middle" x="6020" y="-62.6" font-family="Times,serif" font-size="14.00">HttpClientModule</text>
</g>
<!-- HttpClientModule&#45;&gt;AppModule -->
<g id="edge21" class="edge">
<title>HttpClientModule&#45;&gt;AppModule</title>
<path fill="none" stroke="black" d="M6020,-84.96C6020,-107.15 6020,-141.8 6020,-141.8 6020,-141.8 3691.81,-141.8 3691.81,-141.8"/>
<polygon fill="black" stroke="black" points="3691.81,-138.3 3681.81,-141.8 3691.81,-145.3 3691.81,-138.3"/>
</g>
<!-- FormsModule -->
<g id="node23" class="node">
<title>FormsModule</title>
<polygon fill="#8dd3c7" stroke="black" points="5942.84,-84.8 5939.84,-88.8 5918.84,-88.8 5915.84,-84.8 5847.16,-84.8 5847.16,-48.8 5942.84,-48.8 5942.84,-84.8"/>
<text text-anchor="middle" x="5895" y="-62.6" font-family="Times,serif" font-size="14.00">FormsModule</text>
</g>
<!-- FormsModule&#45;&gt;AppModule -->
<g id="edge22" class="edge">
<title>FormsModule&#45;&gt;AppModule</title>
<path fill="none" stroke="black" d="M5895,-84.84C5895,-106.46 5895,-139.8 5895,-139.8 5895,-139.8 3692.04,-139.8 3692.04,-139.8"/>
<polygon fill="black" stroke="black" points="3692.04,-136.3 3682.04,-139.8 3692.04,-143.3 3692.04,-136.3"/>
</g>
<!-- BrowserAnimationsModule -->
<g id="node24" class="node">
<title>BrowserAnimationsModule</title>
<polygon fill="#8dd3c7" stroke="black" points="5829.32,-84.8 5826.32,-88.8 5805.32,-88.8 5802.32,-84.8 5656.68,-84.8 5656.68,-48.8 5829.32,-48.8 5829.32,-84.8"/>
<text text-anchor="middle" x="5743" y="-62.6" font-family="Times,serif" font-size="14.00">BrowserAnimationsModule</text>
</g>
<!-- BrowserAnimationsModule&#45;&gt;AppModule -->
<g id="edge23" class="edge">
<title>BrowserAnimationsModule&#45;&gt;AppModule</title>
<path fill="none" stroke="black" d="M5743,-85.08C5743,-106.12 5743,-137.8 5743,-137.8 5743,-137.8 3692.01,-137.8 3692.01,-137.8"/>
<polygon fill="black" stroke="black" points="3692.01,-134.3 3682.01,-137.8 3692.01,-141.3 3692.01,-134.3"/>
</g>
<!-- MatIconModule -->
<g id="node25" class="node">
<title>MatIconModule</title>
<polygon fill="#8dd3c7" stroke="black" points="5638.48,-84.8 5635.48,-88.8 5614.48,-88.8 5611.48,-84.8 5531.52,-84.8 5531.52,-48.8 5638.48,-48.8 5638.48,-84.8"/>
<text text-anchor="middle" x="5585" y="-62.6" font-family="Times,serif" font-size="14.00">MatIconModule</text>
</g>
<!-- MatIconModule&#45;&gt;AppModule -->
<g id="edge24" class="edge">
<title>MatIconModule&#45;&gt;AppModule</title>
<path fill="none" stroke="black" d="M5585,-84.93C5585,-105.37 5585,-135.8 5585,-135.8 5585,-135.8 3691.98,-135.8 3691.98,-135.8"/>
<polygon fill="black" stroke="black" points="3691.98,-132.3 3681.98,-135.8 3691.98,-139.3 3691.98,-132.3"/>
</g>
<!-- MatCardModule -->
<g id="node26" class="node">
<title>MatCardModule</title>
<polygon fill="#8dd3c7" stroke="black" points="5513.82,-84.8 5510.82,-88.8 5489.82,-88.8 5486.82,-84.8 5404.18,-84.8 5404.18,-48.8 5513.82,-48.8 5513.82,-84.8"/>
<text text-anchor="middle" x="5459" y="-62.6" font-family="Times,serif" font-size="14.00">MatCardModule</text>
</g>
<!-- MatCardModule&#45;&gt;AppModule -->
<g id="edge25" class="edge">
<title>MatCardModule&#45;&gt;AppModule</title>
<path fill="none" stroke="black" d="M5459,-85.11C5459,-104.95 5459,-133.8 5459,-133.8 5459,-133.8 3691.85,-133.8 3691.85,-133.8"/>
<polygon fill="black" stroke="black" points="3691.85,-130.3 3681.85,-133.8 3691.85,-137.3 3691.85,-130.3"/>
</g>
<!-- MatGridListModule -->
<g id="node27" class="node">
<title>MatGridListModule</title>
<polygon fill="#8dd3c7" stroke="black" points="5386.55,-84.8 5383.55,-88.8 5362.55,-88.8 5359.55,-84.8 5257.45,-84.8 5257.45,-48.8 5386.55,-48.8 5386.55,-84.8"/>
<text text-anchor="middle" x="5322" y="-62.6" font-family="Times,serif" font-size="14.00">MatGridListModule</text>
</g>
<!-- MatGridListModule&#45;&gt;AppModule -->
<g id="edge26" class="edge">
<title>MatGridListModule&#45;&gt;AppModule</title>
<path fill="none" stroke="black" d="M5322,-84.91C5322,-104.14 5322,-131.8 5322,-131.8 5322,-131.8 3692,-131.8 3692,-131.8"/>
<polygon fill="black" stroke="black" points="3692,-128.3 3682,-131.8 3692,-135.3 3692,-128.3"/>
</g>
<!-- MatSelectModule -->
<g id="node28" class="node">
<title>MatSelectModule</title>
<polygon fill="#8dd3c7" stroke="black" points="5239.31,-84.8 5236.31,-88.8 5215.31,-88.8 5212.31,-84.8 5122.69,-84.8 5122.69,-48.8 5239.31,-48.8 5239.31,-84.8"/>
<text text-anchor="middle" x="5181" y="-62.6" font-family="Times,serif" font-size="14.00">MatSelectModule</text>
</g>
<!-- MatSelectModule&#45;&gt;AppModule -->
<g id="edge27" class="edge">
<title>MatSelectModule&#45;&gt;AppModule</title>
<path fill="none" stroke="black" d="M5181,-85.02C5181,-103.63 5181,-129.8 5181,-129.8 5181,-129.8 3692.02,-129.8 3692.02,-129.8"/>
<polygon fill="black" stroke="black" points="3692.02,-126.3 3682.02,-129.8 3692.02,-133.3 3692.02,-126.3"/>
</g>
<!-- MatTooltipModule -->
<g id="node29" class="node">
<title>MatTooltipModule</title>
<polygon fill="#8dd3c7" stroke="black" points="5104.82,-84.8 5101.82,-88.8 5080.82,-88.8 5077.82,-84.8 4981.18,-84.8 4981.18,-48.8 5104.82,-48.8 5104.82,-84.8"/>
<text text-anchor="middle" x="5043" y="-62.6" font-family="Times,serif" font-size="14.00">MatTooltipModule</text>
</g>
<!-- MatTooltipModule&#45;&gt;AppModule -->
<g id="edge28" class="edge">
<title>MatTooltipModule&#45;&gt;AppModule</title>
<path fill="none" stroke="black" d="M5043,-85.1C5043,-103.07 5043,-127.8 5043,-127.8 5043,-127.8 3691.99,-127.8 3691.99,-127.8"/>
<polygon fill="black" stroke="black" points="3691.99,-124.3 3681.99,-127.8 3691.99,-131.3 3691.99,-124.3"/>
</g>
<!-- MatInputModule -->
<g id="node30" class="node">
<title>MatInputModule</title>
<polygon fill="#8dd3c7" stroke="black" points="4963.66,-84.8 4960.66,-88.8 4939.66,-88.8 4936.66,-84.8 4852.34,-84.8 4852.34,-48.8 4963.66,-48.8 4963.66,-84.8"/>
<text text-anchor="middle" x="4908" y="-62.6" font-family="Times,serif" font-size="14.00">MatInputModule</text>
</g>
<!-- MatInputModule&#45;&gt;AppModule -->
<g id="edge29" class="edge">
<title>MatInputModule&#45;&gt;AppModule</title>
<path fill="none" stroke="black" d="M4908,-84.82C4908,-102.17 4908,-125.8 4908,-125.8 4908,-125.8 3691.83,-125.8 3691.83,-125.8"/>
<polygon fill="black" stroke="black" points="3691.83,-122.3 3681.83,-125.8 3691.83,-129.3 3691.83,-122.3"/>
</g>
<!-- MatDatepickerModule -->
<g id="node31" class="node">
<title>MatDatepickerModule</title>
<polygon fill="#8dd3c7" stroke="black" points="4833.51,-84.8 4830.51,-88.8 4809.51,-88.8 4806.51,-84.8 4690.49,-84.8 4690.49,-48.8 4833.51,-48.8 4833.51,-84.8"/>
<text text-anchor="middle" x="4762" y="-62.6" font-family="Times,serif" font-size="14.00">MatDatepickerModule</text>
</g>
<!-- MatDatepickerModule&#45;&gt;AppModule -->
<g id="edge30" class="edge">
<title>MatDatepickerModule&#45;&gt;AppModule</title>
<path fill="none" stroke="black" d="M4762,-84.84C4762,-101.53 4762,-123.8 4762,-123.8 4762,-123.8 3691.94,-123.8 3691.94,-123.8"/>
<polygon fill="black" stroke="black" points="3691.94,-120.3 3681.94,-123.8 3691.94,-127.3 3691.94,-120.3"/>
</g>
<!-- MatProgressSpinnerModule -->
<g id="node32" class="node">
<title>MatProgressSpinnerModule</title>
<polygon fill="#8dd3c7" stroke="black" points="4671.88,-84.8 4668.88,-88.8 4647.88,-88.8 4644.88,-84.8 4498.12,-84.8 4498.12,-48.8 4671.88,-48.8 4671.88,-84.8"/>
<text text-anchor="middle" x="4585" y="-62.6" font-family="Times,serif" font-size="14.00">MatProgressSpinnerModule</text>
</g>
<!-- MatProgressSpinnerModule&#45;&gt;AppModule -->
<g id="edge31" class="edge">
<title>MatProgressSpinnerModule&#45;&gt;AppModule</title>
<path fill="none" stroke="black" d="M4585,-84.81C4585,-100.85 4585,-121.8 4585,-121.8 4585,-121.8 3691.82,-121.8 3691.82,-121.8"/>
<polygon fill="black" stroke="black" points="3691.82,-118.3 3681.82,-121.8 3691.82,-125.3 3691.82,-118.3"/>
</g>
<!-- MatExpansionModule -->
<g id="node33" class="node">
<title>MatExpansionModule</title>
<polygon fill="#8dd3c7" stroke="black" points="4479.71,-84.8 4476.71,-88.8 4455.71,-88.8 4452.71,-84.8 4338.29,-84.8 4338.29,-48.8 4479.71,-48.8 4479.71,-84.8"/>
<text text-anchor="middle" x="4409" y="-62.6" font-family="Times,serif" font-size="14.00">MatExpansionModule</text>
</g>
<!-- MatExpansionModule&#45;&gt;AppModule -->
<g id="edge32" class="edge">
<title>MatExpansionModule&#45;&gt;AppModule</title>
<path fill="none" stroke="black" d="M4409,-85.04C4409,-100.37 4409,-119.8 4409,-119.8 4409,-119.8 3691.89,-119.8 3691.89,-119.8"/>
<polygon fill="black" stroke="black" points="3691.89,-116.3 3681.89,-119.8 3691.89,-123.3 3691.89,-116.3"/>
</g>
<!-- MatButtonModule -->
<g id="node34" class="node">
<title>MatButtonModule</title>
<polygon fill="#8dd3c7" stroke="black" points="4320.22,-84.8 4317.22,-88.8 4296.22,-88.8 4293.22,-84.8 4199.78,-84.8 4199.78,-48.8 4320.22,-48.8 4320.22,-84.8"/>
<text text-anchor="middle" x="4260" y="-62.6" font-family="Times,serif" font-size="14.00">MatButtonModule</text>
</g>
<!-- MatButtonModule&#45;&gt;AppModule -->
<g id="edge33" class="edge">
<title>MatButtonModule&#45;&gt;AppModule</title>
<path fill="none" stroke="black" d="M4260,-84.92C4260,-99.58 4260,-117.8 4260,-117.8 4260,-117.8 3692.13,-117.8 3692.13,-117.8"/>
<polygon fill="black" stroke="black" points="3692.13,-114.3 3682.13,-117.8 3692.13,-121.3 3692.13,-114.3"/>
</g>
<!-- NgMultiSelectDropDownModule.forRoot() -->
<g id="node35" class="node">
<title>NgMultiSelectDropDownModule.forRoot()</title>
<polygon fill="#8dd3c7" stroke="black" points="4181.86,-84.8 4178.86,-88.8 4157.86,-88.8 4154.86,-84.8 3920.14,-84.8 3920.14,-48.8 4181.86,-48.8 4181.86,-84.8"/>
<text text-anchor="middle" x="4051" y="-62.6" font-family="Times,serif" font-size="14.00">NgMultiSelectDropDownModule.forRoot()</text>
</g>
<!-- NgMultiSelectDropDownModule.forRoot()&#45;&gt;AppModule -->
<g id="edge34" class="edge">
<title>NgMultiSelectDropDownModule.forRoot()&#45;&gt;AppModule</title>
<path fill="none" stroke="black" d="M4051,-85.05C4051,-98.98 4051,-115.8 4051,-115.8 4051,-115.8 3691.67,-115.8 3691.67,-115.8"/>
<polygon fill="black" stroke="black" points="3691.67,-112.3 3681.67,-115.8 3691.67,-119.3 3691.67,-112.3"/>
</g>
<!-- { provide: LocationStrategy, useClass: HashLocationStrategy } -->
<g id="node37" class="node">
<title>{ provide: LocationStrategy, useClass: HashLocationStrategy }</title>
<ellipse fill="#fdb462" stroke="black" cx="3640" cy="-66.8" rx="256.13" ry="18"/>
<text text-anchor="middle" x="3640" y="-62.6" font-family="Times,serif" font-size="14.00">{ provide: LocationStrategy, useClass: HashLocationStrategy }</text>
</g>
<!-- { provide: LocationStrategy, useClass: HashLocationStrategy }&#45;&gt;AppModule -->
<g id="edge36" class="edge">
<title>{ provide: LocationStrategy, useClass: HashLocationStrategy }&#45;&gt;AppModule</title>
<path fill="none" stroke="black" d="M3640,-84.91C3640,-84.91 3640,-103.79 3640,-103.79"/>
<polygon fill="black" stroke="black" points="3636.5,-103.79 3640,-113.79 3643.5,-103.79 3636.5,-103.79"/>
</g>
</g>
</svg>
