<?xml version="1.0" encoding="UTF-8" standalone="no"?>
<!DOCTYPE svg PUBLIC "-//W3C//DTD SVG 1.1//EN"
 "http://www.w3.org/Graphics/SVG/1.1/DTD/svg11.dtd">
<!-- Generated by graphviz version 3.0.0 (20220226.1711)
 -->
<!-- Title: dependencies Pages: 1 -->
<svg width="6888pt" height="253pt"
 viewBox="0.00 0.00 6888.00 252.80" xmlns="http://www.w3.org/2000/svg" xmlns:xlink="http://www.w3.org/1999/xlink">
<g id="graph0" class="graph" transform="scale(1 1) rotate(0) translate(4 248.8)">
<title>dependencies</title>
<polygon fill="white" stroke="transparent" points="-4,4 -4,-248.8 6884,-248.8 6884,4 -4,4"/>
<text text-anchor="middle" x="3440" y="-8.2" font-family="sans-serif" font-size="14.00">dependencies</text>
<g id="clust1" class="cluster">
<title>cluster_AppModule</title>
<polygon fill="none" stroke="black" stroke-dasharray="1,5" points="8,-32.8 8,-236.8 6528,-236.8 6528,-32.8 8,-32.8"/>
</g>
<g id="clust2" class="cluster">
<title>cluster_AppModule_declarations</title>
<polygon fill="none" stroke="black" points="552,-40.8 552,-92.8 3904,-92.8 3904,-40.8 552,-40.8"/>
</g>
<g id="clust20" class="cluster">
<title>cluster_AppModule_imports</title>
<polygon fill="none" stroke="black" points="3912,-40.8 3912,-92.8 6520,-92.8 6520,-40.8 3912,-40.8"/>
</g>
<g id="clust22" class="cluster">
<title>cluster_AppModule_bootstrap</title>
<polygon fill="none" stroke="black" points="3781,-176.8 3781,-228.8 3905,-228.8 3905,-176.8 3781,-176.8"/>
</g>
<g id="clust23" class="cluster">
<title>cluster_AppModule_providers</title>
<polygon fill="none" stroke="black" points="16,-40.8 16,-92.8 544,-92.8 544,-40.8 16,-40.8"/>
</g>
<g id="clust24" class="cluster">
<title>cluster_AppRoutingModule</title>
<polygon fill="none" stroke="black" stroke-dasharray="1,5" points="6536,-100.8 6536,-168.8 6872,-168.8 6872,-100.8 6536,-100.8"/>
</g>
<g id="clust26" class="cluster">
<title>cluster_AppRoutingModule_imports</title>
<polygon fill="none" stroke="black" points="6670,-108.8 6670,-160.8 6864,-160.8 6864,-108.8 6670,-108.8"/>
</g>
<g id="clust27" class="cluster">
<title>cluster_AppRoutingModule_exports</title>
<polygon fill="none" stroke="black" points="6544,-108.8 6544,-160.8 6662,-160.8 6662,-108.8 6544,-108.8"/>
</g>
<!-- AppComponent -->
<g id="node1" class="node">
<title>AppComponent</title>
<polygon fill="#ffffb3" stroke="black" points="3895.94,-84.8 3790.06,-84.8 3790.06,-48.8 3895.94,-48.8 3895.94,-84.8"/>
<text text-anchor="middle" x="3843" y="-62.6" font-family="Times,serif" font-size="14.00">AppComponent</text>
</g>
<!-- AppModule -->
<g id="node18" class="node">
<title>AppModule</title>
<polygon fill="#8dd3c7" stroke="black" points="3884.66,-152.8 3881.66,-156.8 3860.66,-156.8 3857.66,-152.8 3801.34,-152.8 3801.34,-116.8 3884.66,-116.8 3884.66,-152.8"/>
<text text-anchor="middle" x="3843" y="-130.6" font-family="Times,serif" font-size="14.00">AppModule</text>
</g>
<!-- AppComponent&#45;&gt;AppModule -->
<g id="edge1" class="edge">
<title>AppComponent&#45;&gt;AppModule</title>
<path fill="none" stroke="black" d="M3843,-85.02C3843,-85.02 3843,-106.53 3843,-106.53"/>
<polygon fill="black" stroke="black" points="3839.5,-106.53 3843,-116.53 3846.5,-106.53 3839.5,-106.53"/>
</g>
<!-- HomeComponent -->
<g id="node2" class="node">
<title>HomeComponent</title>
<polygon fill="#ffffb3" stroke="black" points="3772.55,-84.8 3657.45,-84.8 3657.45,-48.8 3772.55,-48.8 3772.55,-84.8"/>
<text text-anchor="middle" x="3715" y="-62.6" font-family="Times,serif" font-size="14.00">HomeComponent</text>
</g>
<!-- HomeComponent&#45;&gt;AppModule -->
<g id="edge2" class="edge">
<title>HomeComponent&#45;&gt;AppModule</title>
<path fill="none" stroke="black" d="M3715,-84.99C3715,-99.98 3715,-118.8 3715,-118.8 3715,-118.8 3791.09,-118.8 3791.09,-118.8"/>
<polygon fill="black" stroke="black" points="3791.09,-122.3 3801.09,-118.8 3791.09,-115.3 3791.09,-122.3"/>
</g>
<!-- NavbarMovilComponent -->
<g id="node3" class="node">
<title>NavbarMovilComponent</title>
<polygon fill="#ffffb3" stroke="black" points="3639.26,-84.8 3482.74,-84.8 3482.74,-48.8 3639.26,-48.8 3639.26,-84.8"/>
<text text-anchor="middle" x="3561" y="-62.6" font-family="Times,serif" font-size="14.00">NavbarMovilComponent</text>
</g>
<!-- NavbarMovilComponent&#45;&gt;AppModule -->
<g id="edge3" class="edge">
<title>NavbarMovilComponent&#45;&gt;AppModule</title>
<path fill="none" stroke="black" d="M3561,-85.08C3561,-100.75 3561,-120.8 3561,-120.8 3561,-120.8 3791.09,-120.8 3791.09,-120.8"/>
<polygon fill="black" stroke="black" points="3791.09,-124.3 3801.09,-120.8 3791.09,-117.3 3791.09,-124.3"/>
</g>
<!-- NavbarComponent -->
<g id="node4" class="node">
<title>NavbarComponent</title>
<polygon fill="#ffffb3" stroke="black" points="3464.03,-84.8 3341.97,-84.8 3341.97,-48.8 3464.03,-48.8 3464.03,-84.8"/>
<text text-anchor="middle" x="3403" y="-62.6" font-family="Times,serif" font-size="14.00">NavbarComponent</text>
</g>
<!-- NavbarComponent&#45;&gt;AppModule -->
<g id="edge4" class="edge">
<title>NavbarComponent&#45;&gt;AppModule</title>
<path fill="none" stroke="black" d="M3403,-84.83C3403,-101.2 3403,-122.8 3403,-122.8 3403,-122.8 3791.21,-122.8 3791.21,-122.8"/>
<polygon fill="black" stroke="black" points="3791.21,-126.3 3801.21,-122.8 3791.21,-119.3 3791.21,-126.3"/>
</g>
<!-- FooterComponent -->
<g id="node5" class="node">
<title>FooterComponent</title>
<polygon fill="#ffffb3" stroke="black" points="3323.88,-84.8 3206.12,-84.8 3206.12,-48.8 3323.88,-48.8 3323.88,-84.8"/>
<text text-anchor="middle" x="3265" y="-62.6" font-family="Times,serif" font-size="14.00">FooterComponent</text>
</g>
<!-- FooterComponent&#45;&gt;AppModule -->
<g id="edge5" class="edge">
<title>FooterComponent&#45;&gt;AppModule</title>
<path fill="none" stroke="black" d="M3265,-84.83C3265,-101.86 3265,-124.8 3265,-124.8 3265,-124.8 3790.97,-124.8 3790.97,-124.8"/>
<polygon fill="black" stroke="black" points="3790.97,-128.3 3800.97,-124.8 3790.97,-121.3 3790.97,-128.3"/>
</g>
<!-- ActividadesComponent -->
<g id="node6" class="node">
<title>ActividadesComponent</title>
<polygon fill="#ffffb3" stroke="black" points="3188.2,-84.8 3039.8,-84.8 3039.8,-48.8 3188.2,-48.8 3188.2,-84.8"/>
<text text-anchor="middle" x="3114" y="-62.6" font-family="Times,serif" font-size="14.00">ActividadesComponent</text>
</g>
<!-- ActividadesComponent&#45;&gt;AppModule -->
<g id="edge6" class="edge">
<title>ActividadesComponent&#45;&gt;AppModule</title>
<path fill="none" stroke="black" d="M3114,-84.8C3114,-102.48 3114,-126.8 3114,-126.8 3114,-126.8 3791.19,-126.8 3791.19,-126.8"/>
<polygon fill="black" stroke="black" points="3791.19,-130.3 3801.19,-126.8 3791.19,-123.3 3791.19,-130.3"/>
</g>
<!-- ActividadComponent -->
<g id="node7" class="node">
<title>ActividadComponent</title>
<polygon fill="#ffffb3" stroke="black" points="3022.04,-84.8 2885.96,-84.8 2885.96,-48.8 3022.04,-48.8 3022.04,-84.8"/>
<text text-anchor="middle" x="2954" y="-62.6" font-family="Times,serif" font-size="14.00">ActividadComponent</text>
</g>
<!-- ActividadComponent&#45;&gt;AppModule -->
<g id="edge7" class="edge">
<title>ActividadComponent&#45;&gt;AppModule</title>
<path fill="none" stroke="black" d="M2954,-85.07C2954,-103.36 2954,-128.8 2954,-128.8 2954,-128.8 3791.31,-128.8 3791.31,-128.8"/>
<polygon fill="black" stroke="black" points="3791.31,-132.3 3801.31,-128.8 3791.31,-125.3 3791.31,-132.3"/>
</g>
<!-- AdministrarComponent -->
<g id="node8" class="node">
<title>AdministrarComponent</title>
<polygon fill="#ffffb3" stroke="black" points="2867.49,-84.8 2718.51,-84.8 2718.51,-48.8 2867.49,-48.8 2867.49,-84.8"/>
<text text-anchor="middle" x="2793" y="-62.6" font-family="Times,serif" font-size="14.00">AdministrarComponent</text>
</g>
<!-- AdministrarComponent&#45;&gt;AppModule -->
<g id="edge8" class="edge">
<title>AdministrarComponent&#45;&gt;AppModule</title>
<path fill="none" stroke="black" d="M2793,-84.97C2793,-103.89 2793,-130.8 2793,-130.8 2793,-130.8 3791.19,-130.8 3791.19,-130.8"/>
<polygon fill="black" stroke="black" points="3791.19,-134.3 3801.19,-130.8 3791.19,-127.3 3791.19,-134.3"/>
</g>
<!-- DialogoConfirmacionBorradoComponent -->
<g id="node9" class="node">
<title>DialogoConfirmacionBorradoComponent</title>
<polygon fill="#ffffb3" stroke="black" points="2700.07,-84.8 2449.93,-84.8 2449.93,-48.8 2700.07,-48.8 2700.07,-84.8"/>
<text text-anchor="middle" x="2575" y="-62.6" font-family="Times,serif" font-size="14.00">DialogoConfirmacionBorradoComponent</text>
</g>
<!-- DialogoConfirmacionBorradoComponent&#45;&gt;AppModule -->
<g id="edge9" class="edge">
<title>DialogoConfirmacionBorradoComponent&#45;&gt;AppModule</title>
<path fill="none" stroke="black" d="M2575,-84.83C2575,-104.38 2575,-132.8 2575,-132.8 2575,-132.8 3791.17,-132.8 3791.17,-132.8"/>
<polygon fill="black" stroke="black" points="3791.17,-136.3 3801.17,-132.8 3791.17,-129.3 3791.17,-136.3"/>
</g>
<!-- DialogoFormularioMomentoEditarComponent -->
<g id="node10" class="node">
<title>DialogoFormularioMomentoEditarComponent</title>
<polygon fill="#ffffb3" stroke="black" points="2432.08,-84.8 2153.92,-84.8 2153.92,-48.8 2432.08,-48.8 2432.08,-84.8"/>
<text text-anchor="middle" x="2293" y="-62.6" font-family="Times,serif" font-size="14.00">DialogoFormularioMomentoEditarComponent</text>
</g>
<!-- DialogoFormularioMomentoEditarComponent&#45;&gt;AppModule -->
<g id="edge10" class="edge">
<title>DialogoFormularioMomentoEditarComponent&#45;&gt;AppModule</title>
<path fill="none" stroke="black" d="M2293,-85.02C2293,-105.17 2293,-134.8 2293,-134.8 2293,-134.8 3791.14,-134.8 3791.14,-134.8"/>
<polygon fill="black" stroke="black" points="3791.14,-138.3 3801.14,-134.8 3791.14,-131.3 3791.14,-138.3"/>
</g>
<!-- DialogoFormularioMomentoAltaComponent -->
<g id="node11" class="node">
<title>DialogoFormularioMomentoAltaComponent</title>
<polygon fill="#ffffb3" stroke="black" points="2135.97,-84.8 1868.03,-84.8 1868.03,-48.8 2135.97,-48.8 2135.97,-84.8"/>
<text text-anchor="middle" x="2002" y="-62.6" font-family="Times,serif" font-size="14.00">DialogoFormularioMomentoAltaComponent</text>
</g>
<!-- DialogoFormularioMomentoAltaComponent&#45;&gt;AppModule -->
<g id="edge11" class="edge">
<title>DialogoFormularioMomentoAltaComponent&#45;&gt;AppModule</title>
<path fill="none" stroke="black" d="M2002,-84.83C2002,-105.57 2002,-136.8 2002,-136.8 2002,-136.8 3791.09,-136.8 3791.09,-136.8"/>
<polygon fill="black" stroke="black" points="3791.09,-140.3 3801.09,-136.8 3791.09,-133.3 3791.09,-140.3"/>
</g>
<!-- DialogoFormularioActividadEditarComponent -->
<g id="node12" class="node">
<title>DialogoFormularioActividadEditarComponent</title>
<polygon fill="#ffffb3" stroke="black" points="1850.34,-84.8 1571.66,-84.8 1571.66,-48.8 1850.34,-48.8 1850.34,-84.8"/>
<text text-anchor="middle" x="1711" y="-62.6" font-family="Times,serif" font-size="14.00">DialogoFormularioActividadEditarComponent</text>
</g>
<!-- DialogoFormularioActividadEditarComponent&#45;&gt;AppModule -->
<g id="edge12" class="edge">
<title>DialogoFormularioActividadEditarComponent&#45;&gt;AppModule</title>
<path fill="none" stroke="black" d="M1711,-84.97C1711,-106.3 1711,-138.8 1711,-138.8 1711,-138.8 3790.89,-138.8 3790.89,-138.8"/>
<polygon fill="black" stroke="black" points="3790.89,-142.3 3800.89,-138.8 3790.89,-135.3 3790.89,-142.3"/>
</g>
<!-- DialogoFormularioActividadAltaComponent -->
<g id="node13" class="node">
<title>DialogoFormularioActividadAltaComponent</title>
<polygon fill="#ffffb3" stroke="black" points="1553.24,-84.8 1284.76,-84.8 1284.76,-48.8 1553.24,-48.8 1553.24,-84.8"/>
<text text-anchor="middle" x="1419" y="-62.6" font-family="Times,serif" font-size="14.00">DialogoFormularioActividadAltaComponent</text>
</g>
<!-- DialogoFormularioActividadAltaComponent&#45;&gt;AppModule -->
<g id="edge13" class="edge">
<title>DialogoFormularioActividadAltaComponent&#45;&gt;AppModule</title>
<path fill="none" stroke="black" d="M1419,-85.09C1419,-107.01 1419,-140.8 1419,-140.8 1419,-140.8 3791.18,-140.8 3791.18,-140.8"/>
<polygon fill="black" stroke="black" points="3791.18,-144.3 3801.18,-140.8 3791.18,-137.3 3791.18,-144.3"/>
</g>
<!-- ToastComponent -->
<g id="node14" class="node">
<title>ToastComponent</title>
<polygon fill="#ffffb3" stroke="black" points="1266.44,-84.8 1153.56,-84.8 1153.56,-48.8 1266.44,-48.8 1266.44,-84.8"/>
<text text-anchor="middle" x="1210" y="-62.6" font-family="Times,serif" font-size="14.00">ToastComponent</text>
</g>
<!-- ToastComponent&#45;&gt;AppModule -->
<g id="edge14" class="edge">
<title>ToastComponent&#45;&gt;AppModule</title>
<path fill="none" stroke="black" d="M1210,-84.81C1210,-107.29 1210,-142.8 1210,-142.8 1210,-142.8 3791.11,-142.8 3791.11,-142.8"/>
<polygon fill="black" stroke="black" points="3791.11,-146.3 3801.11,-142.8 3791.11,-139.3 3791.11,-146.3"/>
</g>
<!-- PrivacyPolicyComponent -->
<g id="node15" class="node">
<title>PrivacyPolicyComponent</title>
<polygon fill="#ffffb3" stroke="black" points="1135.88,-84.8 976.12,-84.8 976.12,-48.8 1135.88,-48.8 1135.88,-84.8"/>
<text text-anchor="middle" x="1056" y="-62.6" font-family="Times,serif" font-size="14.00">PrivacyPolicyComponent</text>
</g>
<!-- PrivacyPolicyComponent&#45;&gt;AppModule -->
<g id="edge15" class="edge">
<title>PrivacyPolicyComponent&#45;&gt;AppModule</title>
<path fill="none" stroke="black" d="M1056,-84.89C1056,-107.93 1056,-144.8 1056,-144.8 1056,-144.8 3791.17,-144.8 3791.17,-144.8"/>
<polygon fill="black" stroke="black" points="3791.17,-148.3 3801.17,-144.8 3791.17,-141.3 3791.17,-148.3"/>
</g>
<!-- LoadingComponent -->
<g id="node16" class="node">
<title>LoadingComponent</title>
<polygon fill="#ffffb3" stroke="black" points="957.99,-84.8 830.01,-84.8 830.01,-48.8 957.99,-48.8 957.99,-84.8"/>
<text text-anchor="middle" x="894" y="-62.6" font-family="Times,serif" font-size="14.00">LoadingComponent</text>
</g>
<!-- LoadingComponent&#45;&gt;AppModule -->
<g id="edge16" class="edge">
<title>LoadingComponent&#45;&gt;AppModule</title>
<path fill="none" stroke="black" d="M894,-84.95C894,-108.56 894,-146.8 894,-146.8 894,-146.8 3791.31,-146.8 3791.31,-146.8"/>
<polygon fill="black" stroke="black" points="3791.31,-150.3 3801.31,-146.8 3791.31,-143.3 3791.31,-150.3"/>
</g>
<!-- DialogoFormularioInscripcionComponent -->
<g id="node17" class="node">
<title>DialogoFormularioInscripcionComponent</title>
<polygon fill="#ffffb3" stroke="black" points="812.41,-84.8 559.59,-84.8 559.59,-48.8 812.41,-48.8 812.41,-84.8"/>
<text text-anchor="middle" x="686" y="-62.6" font-family="Times,serif" font-size="14.00">DialogoFormularioInscripcionComponent</text>
</g>
<!-- DialogoFormularioInscripcionComponent&#45;&gt;AppModule -->
<g id="edge17" class="edge">
<title>DialogoFormularioInscripcionComponent&#45;&gt;AppModule</title>
<path fill="none" stroke="black" d="M686,-85C686,-109.16 686,-148.8 686,-148.8 686,-148.8 3791.05,-148.8 3791.05,-148.8"/>
<polygon fill="black" stroke="black" points="3791.05,-152.3 3801.05,-148.8 3791.05,-145.3 3791.05,-152.3"/>
</g>
<!-- AppComponent  -->
<g id="node36" class="node">
<title>AppComponent </title>
<polygon fill="#80b1d3" stroke="black" points="3897.44,-220.8 3788.56,-220.8 3788.56,-184.8 3897.44,-184.8 3897.44,-220.8"/>
<text text-anchor="middle" x="3843" y="-198.6" font-family="Times,serif" font-size="14.00">AppComponent </text>
</g>
<!-- AppModule&#45;&gt;AppComponent  -->
<g id="edge35" class="edge">
<title>AppModule&#45;&gt;AppComponent </title>
<path fill="none" stroke="black" stroke-dasharray="1,5" d="M3843,-153.02C3843,-153.02 3843,-174.53 3843,-174.53"/>
<polygon fill="black" stroke="black" points="3839.5,-174.53 3843,-184.53 3846.5,-174.53 3839.5,-174.53"/>
</g>
<!-- BrowserModule -->
<g id="node19" class="node">
<title>BrowserModule</title>
<polygon fill="#8dd3c7" stroke="black" points="6365.49,-84.8 6362.49,-88.8 6341.49,-88.8 6338.49,-84.8 6258.51,-84.8 6258.51,-48.8 6365.49,-48.8 6365.49,-84.8"/>
<text text-anchor="middle" x="6312" y="-62.6" font-family="Times,serif" font-size="14.00">BrowserModule</text>
</g>
<!-- BrowserModule&#45;&gt;AppModule -->
<g id="edge18" class="edge">
<title>BrowserModule&#45;&gt;AppModule</title>
<path fill="none" stroke="black" d="M6312,-85C6312,-109.16 6312,-148.8 6312,-148.8 6312,-148.8 3894.82,-148.8 3894.82,-148.8"/>
<polygon fill="black" stroke="black" points="3894.82,-145.3 3884.82,-148.8 3894.82,-152.3 3894.82,-145.3"/>
</g>
<!-- AppRoutingModule -->
<g id="node20" class="node">
<title>AppRoutingModule</title>
<polygon fill="#8dd3c7" stroke="black" points="6512.28,-84.8 6509.28,-88.8 6488.28,-88.8 6485.28,-84.8 6383.72,-84.8 6383.72,-48.8 6512.28,-48.8 6512.28,-84.8"/>
<text text-anchor="middle" x="6448" y="-62.6" font-family="Times,serif" font-size="14.00">AppRoutingModule</text>
</g>
<!-- AppRoutingModule&#45;&gt;AppModule -->
<g id="edge19" class="edge">
<title>AppRoutingModule&#45;&gt;AppModule</title>
<path fill="none" stroke="black" d="M6448,-85.03C6448,-109.73 6448,-150.8 6448,-150.8 6448,-150.8 3894.71,-150.8 3894.71,-150.8"/>
<polygon fill="black" stroke="black" points="3894.71,-147.3 3884.71,-150.8 3894.71,-154.3 3894.71,-147.3"/>
</g>
<!-- RouterModule  -->
<g id="node39" class="node">
<title>RouterModule </title>
<polygon fill="#fb8072" stroke="black" points="6653.66,-152.8 6552.34,-152.8 6552.34,-116.8 6653.66,-116.8 6653.66,-152.8"/>
<text text-anchor="middle" x="6603" y="-130.6" font-family="Times,serif" font-size="14.00">RouterModule </text>
</g>
<!-- AppRoutingModule&#45;&gt;RouterModule  -->
<g id="edge38" class="edge">
<title>AppRoutingModule&#45;&gt;RouterModule </title>
<path fill="none" stroke="black" stroke-dasharray="5,2" d="M6512.39,-72.8C6554.97,-72.8 6603,-72.8 6603,-72.8 6603,-72.8 6603,-106.53 6603,-106.53"/>
<polygon fill="black" stroke="black" points="6599.5,-106.53 6603,-116.53 6606.5,-106.53 6599.5,-106.53"/>
</g>
<!-- ReactiveFormsModule -->
<g id="node21" class="node">
<title>ReactiveFormsModule</title>
<polygon fill="#8dd3c7" stroke="black" points="5961.31,-84.8 5958.31,-88.8 5937.31,-88.8 5934.31,-84.8 5816.69,-84.8 5816.69,-48.8 5961.31,-48.8 5961.31,-84.8"/>
<text text-anchor="middle" x="5889" y="-62.6" font-family="Times,serif" font-size="14.00">ReactiveFormsModule</text>
</g>
<!-- ReactiveFormsModule&#45;&gt;AppModule -->
<g id="edge20" class="edge">
<title>ReactiveFormsModule&#45;&gt;AppModule</title>
<path fill="none" stroke="black" d="M5889,-84.89C5889,-107.93 5889,-144.8 5889,-144.8 5889,-144.8 3894.8,-144.8 3894.8,-144.8"/>
<polygon fill="black" stroke="black" points="3894.8,-141.3 3884.8,-144.8 3894.8,-148.3 3894.8,-141.3"/>
</g>
<!-- HttpClientModule -->
<g id="node22" class="node">
<title>HttpClientModule</title>
<polygon fill="#8dd3c7" stroke="black" points="5799.16,-84.8 5796.16,-88.8 5775.16,-88.8 5772.16,-84.8 5680.84,-84.8 5680.84,-48.8 5799.16,-48.8 5799.16,-84.8"/>
<text text-anchor="middle" x="5740" y="-62.6" font-family="Times,serif" font-size="14.00">HttpClientModule</text>
</g>
<!-- HttpClientModule&#45;&gt;AppModule -->
<g id="edge21" class="edge">
<title>HttpClientModule&#45;&gt;AppModule</title>
<path fill="none" stroke="black" d="M5740,-84.81C5740,-107.29 5740,-142.8 5740,-142.8 5740,-142.8 3894.83,-142.8 3894.83,-142.8"/>
<polygon fill="black" stroke="black" points="3894.83,-139.3 3884.83,-142.8 3894.83,-146.3 3894.83,-139.3"/>
</g>
<!-- FormsModule -->
<g id="node23" class="node">
<title>FormsModule</title>
<polygon fill="#8dd3c7" stroke="black" points="5662.84,-84.8 5659.84,-88.8 5638.84,-88.8 5635.84,-84.8 5567.16,-84.8 5567.16,-48.8 5662.84,-48.8 5662.84,-84.8"/>
<text text-anchor="middle" x="5615" y="-62.6" font-family="Times,serif" font-size="14.00">FormsModule</text>
</g>
<!-- FormsModule&#45;&gt;AppModule -->
<g id="edge22" class="edge">
<title>FormsModule&#45;&gt;AppModule</title>
<path fill="none" stroke="black" d="M5615,-85.09C5615,-107.01 5615,-140.8 5615,-140.8 5615,-140.8 3895.05,-140.8 3895.05,-140.8"/>
<polygon fill="black" stroke="black" points="3895.05,-137.3 3885.05,-140.8 3895.05,-144.3 3895.05,-137.3"/>
</g>
<!-- BrowserAnimationsModule -->
<g id="node24" class="node">
<title>BrowserAnimationsModule</title>
<polygon fill="#8dd3c7" stroke="black" points="5549.32,-84.8 5546.32,-88.8 5525.32,-88.8 5522.32,-84.8 5376.68,-84.8 5376.68,-48.8 5549.32,-48.8 5549.32,-84.8"/>
<text text-anchor="middle" x="5463" y="-62.6" font-family="Times,serif" font-size="14.00">BrowserAnimationsModule</text>
</g>
<!-- BrowserAnimationsModule&#45;&gt;AppModule -->
<g id="edge23" class="edge">
<title>BrowserAnimationsModule&#45;&gt;AppModule</title>
<path fill="none" stroke="black" d="M5463,-84.97C5463,-106.3 5463,-138.8 5463,-138.8 5463,-138.8 3894.67,-138.8 3894.67,-138.8"/>
<polygon fill="black" stroke="black" points="3894.67,-135.3 3884.67,-138.8 3894.67,-142.3 3894.67,-135.3"/>
</g>
<!-- MatIconModule -->
<g id="node25" class="node">
<title>MatIconModule</title>
<polygon fill="#8dd3c7" stroke="black" points="5358.48,-84.8 5355.48,-88.8 5334.48,-88.8 5331.48,-84.8 5251.52,-84.8 5251.52,-48.8 5358.48,-48.8 5358.48,-84.8"/>
<text text-anchor="middle" x="5305" y="-62.6" font-family="Times,serif" font-size="14.00">MatIconModule</text>
</g>
<!-- MatIconModule&#45;&gt;AppModule -->
<g id="edge24" class="edge">
<title>MatIconModule&#45;&gt;AppModule</title>
<path fill="none" stroke="black" d="M5305,-84.83C5305,-105.57 5305,-136.8 5305,-136.8 5305,-136.8 3894.79,-136.8 3894.79,-136.8"/>
<polygon fill="black" stroke="black" points="3894.79,-133.3 3884.79,-136.8 3894.79,-140.3 3894.79,-133.3"/>
</g>
<!-- MatCardModule -->
<g id="node26" class="node">
<title>MatCardModule</title>
<polygon fill="#8dd3c7" stroke="black" points="5233.82,-84.8 5230.82,-88.8 5209.82,-88.8 5206.82,-84.8 5124.18,-84.8 5124.18,-48.8 5233.82,-48.8 5233.82,-84.8"/>
<text text-anchor="middle" x="5179" y="-62.6" font-family="Times,serif" font-size="14.00">MatCardModule</text>
</g>
<!-- MatCardModule&#45;&gt;AppModule -->
<g id="edge25" class="edge">
<title>MatCardModule&#45;&gt;AppModule</title>
<path fill="none" stroke="black" d="M5179,-85.02C5179,-105.17 5179,-134.8 5179,-134.8 5179,-134.8 3894.82,-134.8 3894.82,-134.8"/>
<polygon fill="black" stroke="black" points="3894.82,-131.3 3884.82,-134.8 3894.82,-138.3 3894.82,-131.3"/>
</g>
<!-- MatGridListModule -->
<g id="node27" class="node">
<title>MatGridListModule</title>
<polygon fill="#8dd3c7" stroke="black" points="5106.55,-84.8 5103.55,-88.8 5082.55,-88.8 5079.55,-84.8 4977.45,-84.8 4977.45,-48.8 5106.55,-48.8 5106.55,-84.8"/>
<text text-anchor="middle" x="5042" y="-62.6" font-family="Times,serif" font-size="14.00">MatGridListModule</text>
</g>
<!-- MatGridListModule&#45;&gt;AppModule -->
<g id="edge26" class="edge">
<title>MatGridListModule&#45;&gt;AppModule</title>
<path fill="none" stroke="black" d="M5042,-84.83C5042,-104.38 5042,-132.8 5042,-132.8 5042,-132.8 3894.97,-132.8 3894.97,-132.8"/>
<polygon fill="black" stroke="black" points="3894.97,-129.3 3884.97,-132.8 3894.97,-136.3 3894.97,-129.3"/>
</g>
<!-- MatSelectModule -->
<g id="node28" class="node">
<title>MatSelectModule</title>
<polygon fill="#8dd3c7" stroke="black" points="4959.31,-84.8 4956.31,-88.8 4935.31,-88.8 4932.31,-84.8 4842.69,-84.8 4842.69,-48.8 4959.31,-48.8 4959.31,-84.8"/>
<text text-anchor="middle" x="4901" y="-62.6" font-family="Times,serif" font-size="14.00">MatSelectModule</text>
</g>
<!-- MatSelectModule&#45;&gt;AppModule -->
<g id="edge27" class="edge">
<title>MatSelectModule&#45;&gt;AppModule</title>
<path fill="none" stroke="black" d="M4901,-84.97C4901,-103.89 4901,-130.8 4901,-130.8 4901,-130.8 3894.8,-130.8 3894.8,-130.8"/>
<polygon fill="black" stroke="black" points="3894.8,-127.3 3884.8,-130.8 3894.8,-134.3 3894.8,-127.3"/>
</g>
<!-- MatTooltipModule -->
<g id="node29" class="node">
<title>MatTooltipModule</title>
<polygon fill="#8dd3c7" stroke="black" points="4824.82,-84.8 4821.82,-88.8 4800.82,-88.8 4797.82,-84.8 4701.18,-84.8 4701.18,-48.8 4824.82,-48.8 4824.82,-84.8"/>
<text text-anchor="middle" x="4763" y="-62.6" font-family="Times,serif" font-size="14.00">MatTooltipModule</text>
</g>
<!-- MatTooltipModule&#45;&gt;AppModule -->
<g id="edge28" class="edge">
<title>MatTooltipModule&#45;&gt;AppModule</title>
<path fill="none" stroke="black" d="M4763,-85.07C4763,-103.36 4763,-128.8 4763,-128.8 4763,-128.8 3894.92,-128.8 3894.92,-128.8"/>
<polygon fill="black" stroke="black" points="3894.92,-125.3 3884.92,-128.8 3894.92,-132.3 3894.92,-125.3"/>
</g>
<!-- MatInputModule -->
<g id="node30" class="node">
<title>MatInputModule</title>
<polygon fill="#8dd3c7" stroke="black" points="4683.66,-84.8 4680.66,-88.8 4659.66,-88.8 4656.66,-84.8 4572.34,-84.8 4572.34,-48.8 4683.66,-48.8 4683.66,-84.8"/>
<text text-anchor="middle" x="4628" y="-62.6" font-family="Times,serif" font-size="14.00">MatInputModule</text>
</g>
<!-- MatInputModule&#45;&gt;AppModule -->
<g id="edge29" class="edge">
<title>MatInputModule&#45;&gt;AppModule</title>
<path fill="none" stroke="black" d="M4628,-84.8C4628,-102.48 4628,-126.8 4628,-126.8 4628,-126.8 3894.93,-126.8 3894.93,-126.8"/>
<polygon fill="black" stroke="black" points="3894.93,-123.3 3884.93,-126.8 3894.93,-130.3 3894.93,-123.3"/>
</g>
<!-- MatDatepickerModule -->
<g id="node31" class="node">
<title>MatDatepickerModule</title>
<polygon fill="#8dd3c7" stroke="black" points="4553.51,-84.8 4550.51,-88.8 4529.51,-88.8 4526.51,-84.8 4410.49,-84.8 4410.49,-48.8 4553.51,-48.8 4553.51,-84.8"/>
<text text-anchor="middle" x="4482" y="-62.6" font-family="Times,serif" font-size="14.00">MatDatepickerModule</text>
</g>
<!-- MatDatepickerModule&#45;&gt;AppModule -->
<g id="edge30" class="edge">
<title>MatDatepickerModule&#45;&gt;AppModule</title>
<path fill="none" stroke="black" d="M4482,-84.83C4482,-101.86 4482,-124.8 4482,-124.8 4482,-124.8 3894.93,-124.8 3894.93,-124.8"/>
<polygon fill="black" stroke="black" points="3894.93,-121.3 3884.93,-124.8 3894.93,-128.3 3894.93,-121.3"/>
</g>
<!-- MatProgressSpinnerModule -->
<g id="node32" class="node">
<title>MatProgressSpinnerModule</title>
<polygon fill="#8dd3c7" stroke="black" points="4391.88,-84.8 4388.88,-88.8 4367.88,-88.8 4364.88,-84.8 4218.12,-84.8 4218.12,-48.8 4391.88,-48.8 4391.88,-84.8"/>
<text text-anchor="middle" x="4305" y="-62.6" font-family="Times,serif" font-size="14.00">MatProgressSpinnerModule</text>
</g>
<!-- MatProgressSpinnerModule&#45;&gt;AppModule -->
<g id="edge31" class="edge">
<title>MatProgressSpinnerModule&#45;&gt;AppModule</title>
<path fill="none" stroke="black" d="M4305,-84.83C4305,-101.2 4305,-122.8 4305,-122.8 4305,-122.8 3894.81,-122.8 3894.81,-122.8"/>
<polygon fill="black" stroke="black" points="3894.81,-119.3 3884.81,-122.8 3894.81,-126.3 3894.81,-119.3"/>
</g>
<!-- MatExpansionModule -->
<g id="node33" class="node">
<title>MatExpansionModule</title>
<polygon fill="#8dd3c7" stroke="black" points="4199.71,-84.8 4196.71,-88.8 4175.71,-88.8 4172.71,-84.8 4058.29,-84.8 4058.29,-48.8 4199.71,-48.8 4199.71,-84.8"/>
<text text-anchor="middle" x="4129" y="-62.6" font-family="Times,serif" font-size="14.00">MatExpansionModule</text>
</g>
<!-- MatExpansionModule&#45;&gt;AppModule -->
<g id="edge32" class="edge">
<title>MatExpansionModule&#45;&gt;AppModule</title>
<path fill="none" stroke="black" d="M4129,-85.08C4129,-100.75 4129,-120.8 4129,-120.8 4129,-120.8 3894.89,-120.8 3894.89,-120.8"/>
<polygon fill="black" stroke="black" points="3894.89,-117.3 3884.89,-120.8 3894.89,-124.3 3894.89,-117.3"/>
</g>
<!-- MatButtonModule -->
<g id="node34" class="node">
<title>MatButtonModule</title>
<polygon fill="#8dd3c7" stroke="black" points="4040.22,-84.8 4037.22,-88.8 4016.22,-88.8 4013.22,-84.8 3919.78,-84.8 3919.78,-48.8 4040.22,-48.8 4040.22,-84.8"/>
<text text-anchor="middle" x="3980" y="-62.6" font-family="Times,serif" font-size="14.00">MatButtonModule</text>
</g>
<!-- MatButtonModule&#45;&gt;AppModule -->
<g id="edge33" class="edge">
<title>MatButtonModule&#45;&gt;AppModule</title>
<path fill="none" stroke="black" d="M3980,-84.99C3980,-99.98 3980,-118.8 3980,-118.8 3980,-118.8 3894.85,-118.8 3894.85,-118.8"/>
<polygon fill="black" stroke="black" points="3894.85,-115.3 3884.85,-118.8 3894.85,-122.3 3894.85,-115.3"/>
</g>
<!-- NgMultiSelectDropDownModule.forRoot() -->
<g id="node35" class="node">
<title>NgMultiSelectDropDownModule.forRoot()</title>
<polygon fill="#8dd3c7" stroke="black" points="6240.86,-84.8 6237.86,-88.8 6216.86,-88.8 6213.86,-84.8 5979.14,-84.8 5979.14,-48.8 6240.86,-48.8 6240.86,-84.8"/>
<text text-anchor="middle" x="6110" y="-62.6" font-family="Times,serif" font-size="14.00">NgMultiSelectDropDownModule.forRoot()</text>
</g>
<!-- NgMultiSelectDropDownModule.forRoot()&#45;&gt;AppModule -->
<g id="edge34" class="edge">
<title>NgMultiSelectDropDownModule.forRoot()&#45;&gt;AppModule</title>
<path fill="none" stroke="black" d="M6110,-84.95C6110,-108.56 6110,-146.8 6110,-146.8 6110,-146.8 3894.77,-146.8 3894.77,-146.8"/>
<polygon fill="black" stroke="black" points="3894.77,-143.3 3884.77,-146.8 3894.77,-150.3 3894.77,-143.3"/>
</g>
<!-- { provide: LocationStrategy, useClass: HashLocationStrategy } -->
<g id="node37" class="node">
<title>{ provide: LocationStrategy, useClass: HashLocationStrategy }</title>
<ellipse fill="#fdb462" stroke="black" cx="280" cy="-66.8" rx="256.13" ry="18"/>
<text text-anchor="middle" x="280" y="-62.6" font-family="Times,serif" font-size="14.00">{ provide: LocationStrategy, useClass: HashLocationStrategy }</text>
</g>
<!-- { provide: LocationStrategy, useClass: HashLocationStrategy }&#45;&gt;AppModule -->
<g id="edge36" class="edge">
<title>{ provide: LocationStrategy, useClass: HashLocationStrategy }&#45;&gt;AppModule</title>
<path fill="none" stroke="black" d="M280,-85.03C280,-109.73 280,-150.8 280,-150.8 280,-150.8 3791.13,-150.8 3791.13,-150.8"/>
<polygon fill="black" stroke="black" points="3791.13,-154.3 3801.13,-150.8 3791.13,-147.3 3791.13,-154.3"/>
</g>
<!-- RouterModule.forRoot(args) -->
<g id="node38" class="node">
<title>RouterModule.forRoot(args)</title>
<polygon fill="#8dd3c7" stroke="black" points="6855.86,-152.8 6852.86,-156.8 6831.86,-156.8 6828.86,-152.8 6678.14,-152.8 6678.14,-116.8 6855.86,-116.8 6855.86,-152.8"/>
<text text-anchor="middle" x="6767" y="-130.6" font-family="Times,serif" font-size="14.00">RouterModule.forRoot(args)</text>
</g>
<!-- RouterModule.forRoot(args)&#45;&gt;AppRoutingModule -->
<g id="edge37" class="edge">
<title>RouterModule.forRoot(args)&#45;&gt;AppRoutingModule</title>
<path fill="none" stroke="black" d="M6767,-116.51C6767,-94.59 6767,-60.8 6767,-60.8 6767,-60.8 6522.55,-60.8 6522.55,-60.8"/>
<polygon fill="black" stroke="black" points="6522.55,-57.3 6512.55,-60.8 6522.55,-64.3 6522.55,-57.3"/>
</g>
</g>
</svg>
