<?xml version="1.0" encoding="UTF-8" standalone="no"?>
<!DOCTYPE svg PUBLIC "-//W3C//DTD SVG 1.1//EN"
 "http://www.w3.org/Graphics/SVG/1.1/DTD/svg11.dtd">
<!-- Generated by graphviz version 3.0.0 (20220226.1711)
 -->
<!-- Title: dependencies Pages: 1 -->
<svg width="3544pt" height="247pt"
 viewBox="0.00 0.00 3544.00 246.80" xmlns="http://www.w3.org/2000/svg" xmlns:xlink="http://www.w3.org/1999/xlink">
<g id="graph0" class="graph" transform="scale(1 1) rotate(0) translate(4 242.8)">
<title>dependencies</title>
<polygon fill="white" stroke="transparent" points="-4,4 -4,-242.8 3540,-242.8 3540,4 -4,4"/>
<text text-anchor="middle" x="1768" y="-8.2" font-family="sans-serif" font-size="14.00">dependencies</text>
<g id="clust1" class="cluster">
<title>cluster_AppModule</title>
<polygon fill="none" stroke="black" stroke-dasharray="1,5" points="8,-32.8 8,-230.8 3528,-230.8 3528,-32.8 8,-32.8"/>
</g>
<g id="clust2" class="cluster">
<title>cluster_AppModule_declarations</title>
<polygon fill="none" stroke="black" points="168,-40.8 168,-92.8 3520,-92.8 3520,-40.8 168,-40.8"/>
</g>
<g id="clust20" class="cluster">
<title>cluster_AppModule_imports</title>
<polygon fill="none" stroke="black" points="16,-40.8 16,-92.8 160,-92.8 160,-40.8 16,-40.8"/>
</g>
<g id="clust22" class="cluster">
<title>cluster_AppModule_bootstrap</title>
<polygon fill="none" stroke="black" points="1437,-170.8 1437,-222.8 1561,-222.8 1561,-170.8 1437,-170.8"/>
</g>
<!-- ActividadComponent -->
<g id="node1" class="node">
<title>ActividadComponent</title>
<polygon fill="#ffffb3" stroke="black" points="3512.04,-84.8 3375.96,-84.8 3375.96,-48.8 3512.04,-48.8 3512.04,-84.8"/>
<text text-anchor="middle" x="3444" y="-62.6" font-family="Times,serif" font-size="14.00">ActividadComponent</text>
</g>
<!-- AppModule -->
<g id="node18" class="node">
<title>AppModule</title>
<polygon fill="#8dd3c7" stroke="black" points="1540.66,-149.8 1537.66,-153.8 1516.66,-153.8 1513.66,-149.8 1457.34,-149.8 1457.34,-113.8 1540.66,-113.8 1540.66,-149.8"/>
<text text-anchor="middle" x="1499" y="-127.6" font-family="Times,serif" font-size="14.00">AppModule</text>
</g>
<!-- ActividadComponent&#45;&gt;AppModule -->
<g id="edge1" class="edge">
<title>ActividadComponent&#45;&gt;AppModule</title>
<path fill="none" stroke="black" d="M3444,-85.12C3444,-108.46 3444,-145.8 3444,-145.8 3444,-145.8 1550.98,-145.8 1550.98,-145.8"/>
<polygon fill="black" stroke="black" points="1550.98,-142.3 1540.98,-145.8 1550.98,-149.3 1550.98,-142.3"/>
</g>
<!-- ActividadesComponent -->
<g id="node2" class="node">
<title>ActividadesComponent</title>
<polygon fill="#ffffb3" stroke="black" points="3358.2,-84.8 3209.8,-84.8 3209.8,-48.8 3358.2,-48.8 3358.2,-84.8"/>
<text text-anchor="middle" x="3284" y="-62.6" font-family="Times,serif" font-size="14.00">ActividadesComponent</text>
</g>
<!-- ActividadesComponent&#45;&gt;AppModule -->
<g id="edge2" class="edge">
<title>ActividadesComponent&#45;&gt;AppModule</title>
<path fill="none" stroke="black" d="M3284,-84.96C3284,-107.15 3284,-141.8 3284,-141.8 3284,-141.8 1550.93,-141.8 1550.93,-141.8"/>
<polygon fill="black" stroke="black" points="1550.93,-138.3 1540.93,-141.8 1550.93,-145.3 1550.93,-138.3"/>
</g>
<!-- AdministrarComponent -->
<g id="node3" class="node">
<title>AdministrarComponent</title>
<polygon fill="#ffffb3" stroke="black" points="3191.49,-84.8 3042.51,-84.8 3042.51,-48.8 3191.49,-48.8 3191.49,-84.8"/>
<text text-anchor="middle" x="3117" y="-62.6" font-family="Times,serif" font-size="14.00">AdministrarComponent</text>
</g>
<!-- AdministrarComponent&#45;&gt;AppModule -->
<g id="edge3" class="edge">
<title>AdministrarComponent&#45;&gt;AppModule</title>
<path fill="none" stroke="black" d="M3117,-85.08C3117,-106.12 3117,-137.8 3117,-137.8 3117,-137.8 1551.03,-137.8 1551.03,-137.8"/>
<polygon fill="black" stroke="black" points="1551.03,-134.3 1541.03,-137.8 1551.03,-141.3 1551.03,-134.3"/>
</g>
<!-- AppComponent -->
<g id="node4" class="node">
<title>AppComponent</title>
<polygon fill="#ffffb3" stroke="black" points="3024.94,-84.8 2919.06,-84.8 2919.06,-48.8 3024.94,-48.8 3024.94,-84.8"/>
<text text-anchor="middle" x="2972" y="-62.6" font-family="Times,serif" font-size="14.00">AppComponent</text>
</g>
<!-- AppComponent&#45;&gt;AppModule -->
<g id="edge4" class="edge">
<title>AppComponent&#45;&gt;AppModule</title>
<path fill="none" stroke="black" d="M2972,-85.11C2972,-104.95 2972,-133.8 2972,-133.8 2972,-133.8 1550.71,-133.8 1550.71,-133.8"/>
<polygon fill="black" stroke="black" points="1550.71,-130.3 1540.71,-133.8 1550.71,-137.3 1550.71,-130.3"/>
</g>
<!-- DialogoConfirmacionBorradoComponent -->
<g id="node5" class="node">
<title>DialogoConfirmacionBorradoComponent</title>
<polygon fill="#ffffb3" stroke="black" points="2901.07,-84.8 2650.93,-84.8 2650.93,-48.8 2901.07,-48.8 2901.07,-84.8"/>
<text text-anchor="middle" x="2776" y="-62.6" font-family="Times,serif" font-size="14.00">DialogoConfirmacionBorradoComponent</text>
</g>
<!-- DialogoConfirmacionBorradoComponent&#45;&gt;AppModule -->
<g id="edge5" class="edge">
<title>DialogoConfirmacionBorradoComponent&#45;&gt;AppModule</title>
<path fill="none" stroke="black" d="M2776,-85.02C2776,-103.63 2776,-129.8 2776,-129.8 2776,-129.8 1550.76,-129.8 1550.76,-129.8"/>
<polygon fill="black" stroke="black" points="1550.76,-126.3 1540.76,-129.8 1550.76,-133.3 1550.76,-126.3"/>
</g>
<!-- DialogoFormularioActividadAltaComponent -->
<g id="node6" class="node">
<title>DialogoFormularioActividadAltaComponent</title>
<polygon fill="#ffffb3" stroke="black" points="2633.24,-84.8 2364.76,-84.8 2364.76,-48.8 2633.24,-48.8 2633.24,-84.8"/>
<text text-anchor="middle" x="2499" y="-62.6" font-family="Times,serif" font-size="14.00">DialogoFormularioActividadAltaComponent</text>
</g>
<!-- DialogoFormularioActividadAltaComponent&#45;&gt;AppModule -->
<g id="edge6" class="edge">
<title>DialogoFormularioActividadAltaComponent&#45;&gt;AppModule</title>
<path fill="none" stroke="black" d="M2499,-84.82C2499,-102.17 2499,-125.8 2499,-125.8 2499,-125.8 1550.7,-125.8 1550.7,-125.8"/>
<polygon fill="black" stroke="black" points="1550.7,-122.3 1540.7,-125.8 1550.7,-129.3 1550.7,-122.3"/>
</g>
<!-- DialogoFormularioActividadEditarComponent -->
<g id="node7" class="node">
<title>DialogoFormularioActividadEditarComponent</title>
<polygon fill="#ffffb3" stroke="black" points="2346.34,-84.8 2067.66,-84.8 2067.66,-48.8 2346.34,-48.8 2346.34,-84.8"/>
<text text-anchor="middle" x="2207" y="-62.6" font-family="Times,serif" font-size="14.00">DialogoFormularioActividadEditarComponent</text>
</g>
<!-- DialogoFormularioActividadEditarComponent&#45;&gt;AppModule -->
<g id="edge7" class="edge">
<title>DialogoFormularioActividadEditarComponent&#45;&gt;AppModule</title>
<path fill="none" stroke="black" d="M2207,-84.81C2207,-100.85 2207,-121.8 2207,-121.8 2207,-121.8 1550.91,-121.8 1550.91,-121.8"/>
<polygon fill="black" stroke="black" points="1550.91,-118.3 1540.91,-121.8 1550.91,-125.3 1550.91,-118.3"/>
</g>
<!-- DialogoFormularioInscripcionComponent -->
<g id="node8" class="node">
<title>DialogoFormularioInscripcionComponent</title>
<polygon fill="#ffffb3" stroke="black" points="2049.41,-84.8 1796.59,-84.8 1796.59,-48.8 2049.41,-48.8 2049.41,-84.8"/>
<text text-anchor="middle" x="1923" y="-62.6" font-family="Times,serif" font-size="14.00">DialogoFormularioInscripcionComponent</text>
</g>
<!-- DialogoFormularioInscripcionComponent&#45;&gt;AppModule -->
<g id="edge8" class="edge">
<title>DialogoFormularioInscripcionComponent&#45;&gt;AppModule</title>
<path fill="none" stroke="black" d="M1923,-84.92C1923,-99.58 1923,-117.8 1923,-117.8 1923,-117.8 1550.82,-117.8 1550.82,-117.8"/>
<polygon fill="black" stroke="black" points="1550.82,-114.3 1540.82,-117.8 1550.82,-121.3 1550.82,-114.3"/>
</g>
<!-- DialogoFormularioMomentoAltaComponent -->
<g id="node9" class="node">
<title>DialogoFormularioMomentoAltaComponent</title>
<polygon fill="#ffffb3" stroke="black" points="1778.97,-84.8 1511.03,-84.8 1511.03,-48.8 1778.97,-48.8 1778.97,-84.8"/>
<text text-anchor="middle" x="1645" y="-62.6" font-family="Times,serif" font-size="14.00">DialogoFormularioMomentoAltaComponent</text>
</g>
<!-- DialogoFormularioMomentoAltaComponent&#45;&gt;AppModule -->
<g id="edge9" class="edge">
<title>DialogoFormularioMomentoAltaComponent&#45;&gt;AppModule</title>
<path fill="none" stroke="black" d="M1525.92,-84.91C1525.92,-84.91 1525.92,-103.79 1525.92,-103.79"/>
<polygon fill="black" stroke="black" points="1522.42,-103.79 1525.92,-113.79 1529.42,-103.79 1522.42,-103.79"/>
</g>
<!-- DialogoFormularioMomentoEditarComponent -->
<g id="node10" class="node">
<title>DialogoFormularioMomentoEditarComponent</title>
<polygon fill="#ffffb3" stroke="black" points="1493.08,-84.8 1214.92,-84.8 1214.92,-48.8 1493.08,-48.8 1493.08,-84.8"/>
<text text-anchor="middle" x="1354" y="-62.6" font-family="Times,serif" font-size="14.00">DialogoFormularioMomentoEditarComponent</text>
</g>
<!-- DialogoFormularioMomentoEditarComponent&#45;&gt;AppModule -->
<g id="edge10" class="edge">
<title>DialogoFormularioMomentoEditarComponent&#45;&gt;AppModule</title>
<path fill="none" stroke="black" d="M1475.1,-84.91C1475.1,-84.91 1475.1,-103.79 1475.1,-103.79"/>
<polygon fill="black" stroke="black" points="1471.6,-103.79 1475.1,-113.79 1478.6,-103.79 1471.6,-103.79"/>
</g>
<!-- FooterComponent -->
<g id="node11" class="node">
<title>FooterComponent</title>
<polygon fill="#ffffb3" stroke="black" points="1196.88,-84.8 1079.12,-84.8 1079.12,-48.8 1196.88,-48.8 1196.88,-84.8"/>
<text text-anchor="middle" x="1138" y="-62.6" font-family="Times,serif" font-size="14.00">FooterComponent</text>
</g>
<!-- FooterComponent&#45;&gt;AppModule -->
<g id="edge11" class="edge">
<title>FooterComponent&#45;&gt;AppModule</title>
<path fill="none" stroke="black" d="M1138,-84.92C1138,-99.58 1138,-117.8 1138,-117.8 1138,-117.8 1447.24,-117.8 1447.24,-117.8"/>
<polygon fill="black" stroke="black" points="1447.24,-121.3 1457.24,-117.8 1447.24,-114.3 1447.24,-121.3"/>
</g>
<!-- HomeComponent -->
<g id="node12" class="node">
<title>HomeComponent</title>
<polygon fill="#ffffb3" stroke="black" points="1060.55,-84.8 945.45,-84.8 945.45,-48.8 1060.55,-48.8 1060.55,-84.8"/>
<text text-anchor="middle" x="1003" y="-62.6" font-family="Times,serif" font-size="14.00">HomeComponent</text>
</g>
<!-- HomeComponent&#45;&gt;AppModule -->
<g id="edge12" class="edge">
<title>HomeComponent&#45;&gt;AppModule</title>
<path fill="none" stroke="black" d="M1003,-84.81C1003,-100.85 1003,-121.8 1003,-121.8 1003,-121.8 1447.14,-121.8 1447.14,-121.8"/>
<polygon fill="black" stroke="black" points="1447.14,-125.3 1457.14,-121.8 1447.14,-118.3 1447.14,-125.3"/>
</g>
<!-- LoadingComponent -->
<g id="node13" class="node">
<title>LoadingComponent</title>
<polygon fill="#ffffb3" stroke="black" points="926.99,-84.8 799.01,-84.8 799.01,-48.8 926.99,-48.8 926.99,-84.8"/>
<text text-anchor="middle" x="863" y="-62.6" font-family="Times,serif" font-size="14.00">LoadingComponent</text>
</g>
<!-- LoadingComponent&#45;&gt;AppModule -->
<g id="edge13" class="edge">
<title>LoadingComponent&#45;&gt;AppModule</title>
<path fill="none" stroke="black" d="M863,-84.82C863,-102.17 863,-125.8 863,-125.8 863,-125.8 1447.27,-125.8 1447.27,-125.8"/>
<polygon fill="black" stroke="black" points="1447.27,-129.3 1457.27,-125.8 1447.27,-122.3 1447.27,-129.3"/>
</g>
<!-- NavbarComponent -->
<g id="node14" class="node">
<title>NavbarComponent</title>
<polygon fill="#ffffb3" stroke="black" points="781.03,-84.8 658.97,-84.8 658.97,-48.8 781.03,-48.8 781.03,-84.8"/>
<text text-anchor="middle" x="720" y="-62.6" font-family="Times,serif" font-size="14.00">NavbarComponent</text>
</g>
<!-- NavbarComponent&#45;&gt;AppModule -->
<g id="edge14" class="edge">
<title>NavbarComponent&#45;&gt;AppModule</title>
<path fill="none" stroke="black" d="M720,-85.02C720,-103.63 720,-129.8 720,-129.8 720,-129.8 1447.12,-129.8 1447.12,-129.8"/>
<polygon fill="black" stroke="black" points="1447.12,-133.3 1457.12,-129.8 1447.12,-126.3 1447.12,-133.3"/>
</g>
<!-- NavbarMovilComponent -->
<g id="node15" class="node">
<title>NavbarMovilComponent</title>
<polygon fill="#ffffb3" stroke="black" points="640.26,-84.8 483.74,-84.8 483.74,-48.8 640.26,-48.8 640.26,-84.8"/>
<text text-anchor="middle" x="562" y="-62.6" font-family="Times,serif" font-size="14.00">NavbarMovilComponent</text>
</g>
<!-- NavbarMovilComponent&#45;&gt;AppModule -->
<g id="edge15" class="edge">
<title>NavbarMovilComponent&#45;&gt;AppModule</title>
<path fill="none" stroke="black" d="M562,-85.11C562,-104.95 562,-133.8 562,-133.8 562,-133.8 1447.22,-133.8 1447.22,-133.8"/>
<polygon fill="black" stroke="black" points="1447.22,-137.3 1457.22,-133.8 1447.22,-130.3 1447.22,-137.3"/>
</g>
<!-- PrivacyPolicyComponent -->
<g id="node16" class="node">
<title>PrivacyPolicyComponent</title>
<polygon fill="#ffffb3" stroke="black" points="465.88,-84.8 306.12,-84.8 306.12,-48.8 465.88,-48.8 465.88,-84.8"/>
<text text-anchor="middle" x="386" y="-62.6" font-family="Times,serif" font-size="14.00">PrivacyPolicyComponent</text>
</g>
<!-- PrivacyPolicyComponent&#45;&gt;AppModule -->
<g id="edge16" class="edge">
<title>PrivacyPolicyComponent&#45;&gt;AppModule</title>
<path fill="none" stroke="black" d="M386,-85.08C386,-106.12 386,-137.8 386,-137.8 386,-137.8 1447.06,-137.8 1447.06,-137.8"/>
<polygon fill="black" stroke="black" points="1447.06,-141.3 1457.06,-137.8 1447.06,-134.3 1447.06,-141.3"/>
</g>
<!-- ToastComponent -->
<g id="node17" class="node">
<title>ToastComponent</title>
<polygon fill="#ffffb3" stroke="black" points="288.44,-84.8 175.56,-84.8 175.56,-48.8 288.44,-48.8 288.44,-84.8"/>
<text text-anchor="middle" x="232" y="-62.6" font-family="Times,serif" font-size="14.00">ToastComponent</text>
</g>
<!-- ToastComponent&#45;&gt;AppModule -->
<g id="edge17" class="edge">
<title>ToastComponent&#45;&gt;AppModule</title>
<path fill="none" stroke="black" d="M232,-84.96C232,-107.15 232,-141.8 232,-141.8 232,-141.8 1447.21,-141.8 1447.21,-141.8"/>
<polygon fill="black" stroke="black" points="1447.21,-145.3 1457.21,-141.8 1447.21,-138.3 1447.21,-145.3"/>
</g>
<!-- AppComponent  -->
<g id="node20" class="node">
<title>AppComponent </title>
<polygon fill="#80b1d3" stroke="black" points="1553.44,-214.8 1444.56,-214.8 1444.56,-178.8 1553.44,-178.8 1553.44,-214.8"/>
<text text-anchor="middle" x="1499" y="-192.6" font-family="Times,serif" font-size="14.00">AppComponent </text>
</g>
<!-- AppModule&#45;&gt;AppComponent  -->
<g id="edge19" class="edge">
<title>AppModule&#45;&gt;AppComponent </title>
<path fill="none" stroke="black" stroke-dasharray="1,5" d="M1499,-149.91C1499,-149.91 1499,-168.79 1499,-168.79"/>
<polygon fill="black" stroke="black" points="1495.5,-168.79 1499,-178.79 1502.5,-168.79 1495.5,-168.79"/>
</g>
<!-- AppRoutingModule -->
<g id="node19" class="node">
<title>AppRoutingModule</title>
<polygon fill="#8dd3c7" stroke="black" points="152.28,-84.8 149.28,-88.8 128.28,-88.8 125.28,-84.8 23.72,-84.8 23.72,-48.8 152.28,-48.8 152.28,-84.8"/>
<text text-anchor="middle" x="88" y="-62.6" font-family="Times,serif" font-size="14.00">AppRoutingModule</text>
</g>
<!-- AppRoutingModule&#45;&gt;AppModule -->
<g id="edge18" class="edge">
<title>AppRoutingModule&#45;&gt;AppModule</title>
<path fill="none" stroke="black" d="M88,-85.12C88,-108.46 88,-145.8 88,-145.8 88,-145.8 1447.15,-145.8 1447.15,-145.8"/>
<polygon fill="black" stroke="black" points="1447.15,-149.3 1457.15,-145.8 1447.15,-142.3 1447.15,-149.3"/>
</g>
</g>
</svg>
